<?xml version="1.0" encoding="UTF-8"?>
<svg xmlns="http://www.w3.org/2000/svg" xmlns:xlink="http://www.w3.org/1999/xlink" width="128px" height="59px" viewBox="0 0 127 59" version="1.1">
<g id="surface1">
<path style=" stroke:none;fill-rule:nonzero;fill:rgb(2.745098%,63.921569%,84.313725%);fill-opacity:1;" d="M 117.929688 52.601562 C 117.363281 52.601562 116.851562 52.601562 116.398438 52.542969 C 115.433594 52.488281 114.46875 52.429688 113.507812 52.429688 C 112.882812 52.429688 112.882812 52.429688 112.824219 51.800781 L 111.917969 41.40625 L 111.011719 32.785156 L 110.386719 27.472656 L 109.820312 22.847656 L 108.800781 15.652344 C 108.460938 13.082031 108.0625 10.566406 107.554688 7.996094 C 107.496094 7.597656 107.496094 7.539062 107.949219 7.484375 C 109.707031 7.140625 111.523438 6.96875 113.335938 6.96875 L 113.960938 6.96875 C 114.242188 7.027344 114.414062 7.199219 114.46875 7.539062 L 114.695312 11.480469 L 116.285156 32.785156 L 117.078125 42.550781 L 117.589844 48.148438 Z M 48.417969 6.96875 L 49.4375 6.96875 C 49.949219 6.96875 50.0625 7.140625 50.0625 7.65625 L 50.515625 14.566406 L 51.539062 28.898438 L 52.160156 36.382812 L 52.613281 42.148438 L 53.523438 52.085938 C 53.523438 52.542969 53.464844 52.601562 53.011719 52.601562 L 48.929688 52.429688 C 48.644531 52.488281 48.476562 52.316406 48.476562 52.03125 L 48.304688 50.03125 C 48.136719 48.316406 47.964844 46.605469 47.851562 44.835938 L 46.945312 35.8125 L 45.980469 27.644531 L 45.300781 21.875 L 44.5625 16.621094 C 44.222656 14.28125 43.828125 11.882812 43.429688 9.539062 L 43.144531 7.941406 C 43.089844 7.65625 43.144531 7.539062 43.429688 7.484375 C 45.015625 7.199219 46.546875 6.914062 48.417969 6.96875 Z M 105.457031 29.984375 C 106.871094 29.984375 107.042969 30.042969 107.269531 31.414062 C 107.554688 33.125 107.78125 34.839844 107.949219 36.554688 L 108.574219 42.09375 L 109.765625 53.855469 C 109.820312 54.144531 109.765625 54.257812 109.480469 54.257812 L 105.058594 54.769531 C 104.605469 54.828125 104.492188 54.769531 104.433594 54.316406 L 101.882812 41.179688 L 100.296875 32.441406 L 100.070312 31.242188 C 100.011719 31.011719 100.125 30.84375 100.351562 30.785156 C 102.109375 30.386719 103.8125 30.097656 105.457031 29.984375 Z M 40.992188 29.984375 C 42.523438 29.929688 42.691406 30.097656 42.863281 31.527344 C 43.257812 33.867188 43.542969 36.152344 43.769531 38.496094 L 44.507812 45.347656 L 44.960938 49.972656 L 45.355469 53.6875 C 45.355469 54.199219 45.300781 54.316406 44.847656 54.371094 L 40.652344 54.769531 C 40.199219 54.828125 40.085938 54.769531 40.027344 54.316406 L 36.570312 36.382812 L 35.664062 31.300781 C 35.605469 31.011719 35.71875 30.84375 36.003906 30.785156 C 37.761719 30.386719 39.402344 30.097656 40.992188 29.984375 Z M 62.648438 47.6875 L 62.648438 55 C 62.707031 55.34375 62.535156 55.511719 62.195312 55.457031 L 60.835938 55.457031 C 59.871094 55.457031 58.90625 55.511719 57.945312 55.570312 C 57.433594 55.628906 57.375 55.628906 57.320312 55 L 56.414062 44.71875 L 55.960938 39.636719 L 55.277344 31.871094 C 55.222656 31.242188 55.335938 31.128906 55.847656 31.070312 C 57.433594 30.898438 59.019531 30.898438 60.609375 30.957031 L 61.800781 31.128906 C 62.253906 31.300781 62.308594 31.355469 62.308594 31.8125 L 62.480469 34.898438 L 62.535156 38.324219 C 62.59375 41.464844 62.648438 44.546875 62.648438 47.6875 Z M 127 48.03125 L 127 55.058594 C 127 55.34375 126.886719 55.511719 126.601562 55.457031 L 124.5625 55.457031 C 123.769531 55.457031 122.972656 55.511719 122.238281 55.570312 C 121.785156 55.628906 121.726562 55.570312 121.671875 55.058594 L 120.480469 41.691406 L 119.855469 35.066406 L 119.628906 31.699219 C 119.574219 31.242188 119.6875 31.128906 120.140625 31.128906 C 122.011719 30.898438 123.9375 30.84375 125.808594 31.070312 C 126.546875 31.128906 126.660156 31.355469 126.714844 32.097656 L 126.886719 39.695312 Z M 103.8125 17.820312 C 104.378906 17.820312 104.886719 17.878906 105.285156 17.933594 C 105.570312 17.992188 105.683594 18.105469 105.738281 18.390625 L 106.476562 26.332031 C 106.644531 27.015625 106.53125 27.128906 105.851562 27.128906 L 103.925781 27.242188 C 103.527344 27.300781 103.355469 27.359375 103.355469 26.730469 L 102.5625 20.277344 L 102.335938 18.449219 C 102.28125 18.105469 102.394531 17.933594 102.734375 17.878906 Z M 39.574219 17.820312 C 40.027344 17.820312 40.480469 17.878906 40.878906 17.933594 C 41.105469 17.992188 41.21875 18.105469 41.273438 18.390625 L 41.5 20.390625 L 42.070312 26.617188 C 42.125 27.074219 42.125 27.128906 41.671875 27.128906 L 39.460938 27.242188 C 39.007812 27.300781 38.949219 27.242188 38.894531 26.785156 L 38.382812 22.21875 L 37.929688 18.390625 C 37.871094 18.105469 37.988281 17.933594 38.269531 17.933594 C 38.667969 17.878906 39.121094 17.820312 39.574219 17.820312 Z M 62.195312 23.53125 L 62.195312 27.472656 C 62.253906 28.101562 62.140625 28.101562 61.628906 28.101562 C 60.890625 28.101562 60.210938 28.042969 59.53125 27.988281 C 59.078125 27.929688 59.019531 27.929688 59.078125 27.472656 L 58.90625 22.617188 C 58.90625 21.53125 58.90625 20.449219 58.851562 19.363281 C 58.792969 18.847656 58.851562 18.792969 59.359375 18.792969 C 60.15625 18.792969 60.949219 18.847656 61.742188 18.964844 C 62.195312 18.964844 62.195312 19.078125 62.195312 19.535156 Z M 126.601562 23.589844 L 126.601562 27.53125 C 126.601562 28.042969 126.546875 28.101562 126.035156 28.101562 L 123.882812 27.988281 C 123.542969 27.929688 123.371094 27.757812 123.429688 27.472656 L 123.257812 19.304688 C 123.257812 18.847656 123.316406 18.792969 123.769531 18.792969 C 124.503906 18.792969 125.1875 18.847656 125.867188 18.90625 C 126.714844 18.964844 126.601562 19.132812 126.601562 19.761719 Z M 37.816406 26.671875 C 37.871094 27.359375 37.816406 27.472656 37.136719 27.53125 L 35.777344 27.871094 C 35.320312 28.042969 35.265625 27.929688 35.207031 27.53125 L 33.789062 19.476562 C 33.621094 18.964844 33.734375 18.847656 34.246094 18.792969 L 36.230469 18.449219 C 36.683594 18.390625 36.796875 18.390625 36.796875 18.847656 C 36.964844 19.820312 37.136719 20.789062 37.25 21.761719 L 37.816406 26.332031 Z M 98.140625 18.847656 C 98.992188 18.675781 99.898438 18.5625 100.804688 18.449219 C 101.089844 18.390625 101.203125 18.5625 101.261719 18.847656 L 101.714844 21.988281 C 101.941406 23.53125 102.109375 25.074219 102.167969 26.617188 L 102.167969 27.074219 C 102.222656 27.300781 102.109375 27.472656 101.882812 27.53125 L 100.070312 27.929688 C 99.785156 27.988281 99.671875 27.871094 99.617188 27.585938 L 98.140625 19.078125 Z M 57.886719 25.015625 C 57.886719 25.929688 57.832031 26.785156 57.773438 27.585938 C 57.773438 27.871094 57.660156 27.988281 57.375 28.042969 L 55.621094 28.214844 C 55.335938 28.273438 55.222656 28.101562 55.222656 27.816406 C 55.109375 26.957031 55.050781 26.160156 54.996094 25.300781 C 54.882812 23.761719 54.769531 22.160156 54.710938 20.5625 L 54.597656 19.421875 C 54.542969 19.191406 54.65625 19.078125 54.882812 19.078125 L 57.207031 18.90625 C 57.605469 18.90625 57.71875 18.964844 57.71875 19.421875 Z M 122.179688 24.101562 C 122.238281 25.1875 122.238281 26.332031 122.179688 27.414062 C 122.238281 27.929688 122.125 28.042969 121.613281 28.042969 L 120.027344 28.214844 C 119.742188 28.273438 119.574219 28.101562 119.574219 27.816406 C 119.515625 26.386719 119.402344 24.902344 119.289062 23.476562 L 119.0625 19.476562 C 119.003906 19.191406 119.121094 19.078125 119.347656 19.078125 L 121.613281 18.90625 C 122.011719 18.90625 122.066406 18.964844 122.066406 19.421875 C 122.179688 20.960938 122.238281 22.5625 122.179688 24.101562 Z M 35.605469 43.578125 C 36.511719 44.664062 36.683594 45.863281 36.285156 47.175781 C 35.945312 48.433594 35.320312 49.515625 34.414062 50.429688 C 32.941406 51.972656 31.238281 53.230469 29.367188 54.199219 C 26.136719 55.914062 22.792969 57.113281 19.21875 57.742188 C 16.667969 58.253906 14.117188 58.597656 11.566406 58.769531 C 10.773438 58.824219 9.980469 58.824219 9.183594 58.824219 L 7.484375 58.824219 C 7.03125 58.824219 6.917969 58.710938 6.859375 58.253906 L 6.464844 52.714844 L 5.386719 41.808594 L 4.195312 31.414062 L 3.515625 25.875 L 2.777344 20.5625 C 2.382812 17.648438 1.871094 14.738281 1.359375 11.824219 C 0.964844 9.484375 0.566406 7.140625 0.0585938 4.800781 C 0 4.515625 0.0585938 4.285156 0.339844 4.230469 L 8.222656 0.917969 C 8.730469 0.6875 9.183594 0.515625 9.695312 0.402344 C 10.035156 0.34375 10.207031 0.460938 10.148438 0.800781 C 10.148438 1.714844 10.148438 2.628906 10.09375 3.601562 L 10.035156 4.34375 C 9.980469 7.65625 9.980469 10.96875 10.035156 14.335938 C 10.09375 17.25 10.261719 20.21875 10.433594 23.132812 C 10.714844 27.699219 11.167969 32.269531 11.621094 36.78125 C 11.621094 37.238281 11.679688 37.238281 12.191406 37.179688 C 13.152344 37.011719 14.0625 36.953125 15.023438 36.953125 C 18.03125 36.953125 21.035156 37.296875 23.925781 38.039062 C 26.476562 38.667969 28.914062 39.523438 31.351562 40.609375 C 32.542969 41.179688 33.621094 41.863281 34.640625 42.664062 C 35.039062 42.949219 35.320312 43.234375 35.605469 43.578125 Z M 99.503906 43.0625 C 100.691406 44.035156 101.089844 45.347656 100.75 46.890625 C 100.464844 48.148438 99.898438 49.230469 99.046875 50.203125 C 97.6875 51.746094 96.101562 52.945312 94.34375 53.914062 C 90.941406 55.800781 87.3125 57.113281 83.457031 57.796875 C 81.359375 58.199219 79.261719 58.539062 77.164062 58.710938 C 75.972656 58.824219 74.667969 58.882812 73.363281 58.824219 L 71.835938 58.824219 C 71.496094 58.882812 71.324219 58.710938 71.324219 58.367188 C 71.210938 56.769531 71.097656 55.171875 70.925781 53.570312 L 70.019531 43.804688 L 69.054688 35.296875 L 67.867188 25.703125 C 67.695312 24.046875 67.46875 22.332031 67.183594 20.675781 L 66.164062 14.28125 C 65.710938 11.253906 65.144531 8.226562 64.519531 5.199219 L 64.464844 4.800781 C 64.351562 4.515625 64.464844 4.285156 64.746094 4.230469 C 67.527344 3.085938 70.246094 1.828125 73.023438 0.746094 C 73.761719 0.460938 74.667969 0.117188 74.613281 0.800781 C 74.386719 2.914062 74.441406 5.027344 74.386719 7.085938 C 74.328125 8.796875 74.328125 10.511719 74.441406 12.167969 L 74.441406 13.480469 C 74.441406 15.535156 74.5 17.59375 74.667969 19.589844 C 74.78125 22.273438 74.953125 25.015625 75.179688 27.699219 L 75.691406 33.46875 C 75.746094 34.554688 75.859375 35.582031 76.03125 36.667969 C 76.03125 37.296875 76.144531 37.238281 76.652344 37.179688 C 77.675781 37.011719 78.695312 36.953125 79.714844 36.953125 C 83.285156 37.011719 86.746094 37.582031 90.148438 38.550781 C 92.472656 39.179688 94.683594 40.035156 96.835938 41.179688 C 97.800781 41.691406 98.652344 42.320312 99.503906 43.0625 Z M 17.519531 53.113281 C 18.371094 52.601562 19.84375 51.574219 21.882812 49.972656 C 23.925781 48.316406 25.171875 47.234375 25.683594 46.660156 C 22.621094 45.292969 19.445312 44.089844 16.160156 43.007812 Z M 89.921875 46.945312 C 90.089844 46.777344 90.035156 46.660156 89.863281 46.546875 L 88.503906 45.976562 C 86.121094 44.949219 83.742188 44.035156 81.300781 43.234375 L 80.960938 43.121094 C 80.847656 43.0625 80.734375 43.121094 80.566406 43.179688 L 81.925781 53.058594 C 82.097656 53.058594 82.210938 53 82.265625 52.945312 C 84.476562 51.34375 86.6875 49.6875 88.898438 47.917969 Z M 89.921875 46.945312 "/>
</g>
</svg>
