<?xml version="1.0" encoding="UTF-8" standalone="no"?>
<!-- Created with Inkscape (http://www.inkscape.org/) -->

<svg
   width="65.616669mm"
   height="55.283836mm"
   viewBox="0 0 65.616669 55.283836"
   version="1.1"
   id="svg1"
   xml:space="preserve"
   xmlns="http://www.w3.org/2000/svg"
   xmlns:svg="http://www.w3.org/2000/svg"><defs
     id="defs1" /><g
     id="layer1"
     transform="translate(-47.625001,-129.78517)"><g
       style="display:block"
       id="g1"
       transform="matrix(0.26458333,0,0,0.26458333,46.566667,123.58401)"><path
         d="m 0,0 c 10.18541,0.31829407 19.952561,3.4944102 28.75,8.5625 3.144439,1.683327 3.144439,1.683327 6.605469,1.785156 C 37.725953,9.5248804 40.002709,8.5430392 42.3125,7.5625 60.761097,1.1807684 84.80166,0.05565137 102.75,8.7421875 c 2.38579,1.1314954 3.90908,1.7379355 6.5625,1.8203125 3.91525,-1.4394295 7.52186,-3.2267785 11.22266,-5.1367188 8.13182,-4.153339 17.67127,-6.21290346 26.77734,-4.8632812 2.6875,1.5 2.6875,1.5 4,4 1.61807,11.124258 -4.17689,21.971056 -9.26953,31.53125 -1.83703,3.477734 -3.22552,6.549737 -3.73047,10.46875 1.4676,-0.723164 1.4676,-0.723164 2.96484,-1.460938 13.4214,-6.513527 25.20454,-10.016229 40.03516,-5.539062 -2.87651,2.876512 -6.25996,2.958632 -10.125,3.6875 -10.20456,2.082079 -19.76795,5.604347 -28.69922,11.027344 -2.17578,1.285156 -2.17578,1.285156 -4.17578,1.285156 0.33,0.99 0.66,1.98 1,3 0.99967,-0.489199 0.99967,-0.489199 2.01953,-0.988281 15.93709,-7.556187 31.53275,-9.827626 48.47656,-4.179688 2.45256,1.144014 3.67981,2.230509 5.50391,4.167969 -0.57218,-0.01571 -1.14437,-0.03142 -1.73389,-0.04761 -15.08245,-0.356812 -29.90454,-0.113584 -44.26611,5.047607 0.33,0.33 0.66,0.66 1,1 1.84135,-0.0042 3.68301,-0.01568 5.52368,-0.06592 12.05638,-0.311215 22.20159,0.636822 31.47632,9.065918 -0.33,0.99 -0.66,1.98 -1,3 -0.71543,-0.204961 -1.43086,-0.409922 -2.16797,-0.621094 -7.62263,-2.060971 -14.9517,-3.01031 -22.83203,-3.378906 0.53109,0.219141 1.06219,0.438281 1.60937,0.664062 5.00517,2.246844 7.96605,4.183708 10.39063,9.335938 0.60427,4.229898 0.29088,6.394971 -1.5625,10.25 -2.97557,3.357056 -5.14833,4.463249 -9.4375,5.75 -1.37496,0.02353 -2.75137,0.0023 -4.125,-0.0625 -4.529,0.07305 -5.66434,1.035305 -8.875,4.062505 -4.47254,1.49084 -8.52746,1.49084 -13,0 -0.006,1.25423 -0.0117,2.50847 -0.0178,3.8007 -0.0572,11.81564 -0.12994,23.63108 -0.21793,35.44653 -0.0447,6.07455 -0.084,12.14904 -0.11073,18.22372 -0.026,5.86157 -0.0664,11.72287 -0.11675,17.58428 -0.0167,2.23708 -0.0282,4.4742 -0.0344,6.71133 -0.01,3.13172 -0.0376,6.26277 -0.07,9.39433 0.001,0.92645 0.003,1.8529 0.004,2.80742 -0.0703,4.80485 -0.25809,8.15769 -3.43672,12.03169 -2.42811,1.21405 -3.97941,1.13109 -6.69333,1.14044 -0.98984,0.006 -1.97968,0.0114 -2.99951,0.0173 -1.63487,0.002 -1.63487,0.002 -3.30277,0.003 -1.71718,0.007 -1.71718,0.007 -3.46905,0.015 -3.80085,0.0147 -7.60166,0.0214 -11.40253,0.0269 -2.63315,0.006 -5.266294,0.0115 -7.899442,0.0173 -4.819485,0.01 -9.638961,0.0155 -14.458455,0.0185 -7.095227,0.004 -14.190262,0.022 -21.285431,0.051 -6.143469,0.0242 -12.286859,0.0319 -18.430373,0.0337 -2.614744,0.003 -5.229487,0.0111 -7.8442,0.0242 -3.653655,0.017 -7.306837,0.0152 -10.960514,0.009 -1.085864,0.009 -2.171728,0.0184 -3.290497,0.0279 -0.995479,-0.006 -1.990957,-0.0111 -3.016602,-0.0169 -0.863888,10e-4 -1.727775,0.003 -2.617842,0.004 -2.874632,-0.45899 -4.230672,-1.37942 -6.329454,-3.37194 -0.9118491,-2.73555 -1.1337097,-4.37661 -1.1582184,-7.19511 -0.00979,-0.85396 -0.019578,-1.70791 -0.029663,-2.58774 -0.00863,-1.40046 -0.00863,-1.40046 -0.017441,-2.82921 -0.0099,-0.98555 -0.019799,-1.9711 -0.029999,-2.98651 -0.031627,-3.26269 -0.056377,-6.5254 -0.081085,-9.78815 -0.020568,-2.26017 -0.041565,-4.52032 -0.062973,-6.78047 C 6.8778891,167.44249 6.8284846,161.48963 6.7802734,155.53674 6.7300664,149.46392 6.6743762,143.39114 6.6191406,137.31836 6.5115457,125.39978 6.4101037,113.48116 6.3125,101.5625 c -0.99,0.33 -1.98,0.66 -3,1 -6.145529,0.59092 -8.9722828,-0.80933 -14,-4 -2.838699,-0.946233 -4.919117,-1.155272 -7.875,-1.3125 -4.509201,-0.420683 -6.977087,-1.24447 -10.125,-4.6875 -2.283572,-3.044763 -2.415481,-6.205943 -2.324219,-9.96875 0.534195,-3.346762 2.192981,-5.473765 4.324219,-8.03125 1.485,-0.99 1.485,-0.99 3,-2 -7.349183,-0.432305 -13.902151,1.182258 -21,3 0.611896,-3.472327 1.009318,-4.008489 3.8125,-6.5625 9.054538,-5.926606 19.390569,-5.727973 29.792969,-5.445313 1.6802927,0.0039 1.6802927,0.0039 3.394531,0.0078 0.33,-0.33 0.66,-0.66 1,-1 -2.4985477,-0.651927 -4.998614,-1.296631 -7.5,-1.9375 -0.696094,-0.182402 -1.392188,-0.364805 -2.109375,-0.552734 -8.7,-2.215278 -16.946606,-2.64856 -25.890625,-2.572266 -1.519805,0.0068 -1.519805,0.0068 -3.070312,0.01367 -2.476626,0.01168 -4.953125,0.02806 -7.429688,0.04883 5.699967,-6.054208 14.635088,-7.181158 22.636475,-7.479004 C -17.152157,49.965798 -5.9387214,53.236928 5.3125,59.5625 3.9482818,55.469845 1.3179244,54.571228 -2.3125,52.6875 -2.9832959,52.335989 -3.6540918,51.984478 -4.3452148,51.622314 -15.203807,46.101791 -26.79555,43.029127 -38.6875,40.5625 c 6.389455,-4.259637 14.558941,-3.646296 21.925781,-2.574219 8.2034066,1.771067 14.8992312,5.350234 22.074219,9.574219 0.2908947,-3.989413 -0.2139215,-5.834687 -2.625,-9 -7.0169301,-9.96005 -12.4061759,-21.625889 -11.375,-34 C -6.4808203,0.39350454 -4.5957567,-0.00576632 0,0 Z"
         transform="translate(56.6875,23.4375)"
         style="fill:#000000"
         isInvalidTag="true"
         id="path1" /><path
         d="m 0,0 c 10.18541,0.31829407 19.952561,3.4944102 28.75,8.5625 3.144439,1.683327 3.144439,1.683327 6.605469,1.785156 C 37.725953,9.5248804 40.002709,8.5430392 42.3125,7.5625 60.761097,1.1807684 84.80166,0.05565137 102.75,8.7421875 c 2.38579,1.1314954 3.90908,1.7379355 6.5625,1.8203125 3.91525,-1.4394295 7.52186,-3.2267785 11.22266,-5.1367188 8.13182,-4.153339 17.67127,-6.21290346 26.77734,-4.8632812 2.6875,1.5 2.6875,1.5 4,4 1.61807,11.124258 -4.17689,21.971056 -9.26953,31.53125 -1.83703,3.477734 -3.22552,6.549737 -3.73047,10.46875 1.4676,-0.723164 1.4676,-0.723164 2.96484,-1.460938 13.4214,-6.513527 25.20454,-10.016229 40.03516,-5.539062 -2.87651,2.876512 -6.25996,2.958632 -10.125,3.6875 -10.20456,2.082079 -19.76795,5.604347 -28.69922,11.027344 -2.17578,1.285156 -2.17578,1.285156 -4.17578,1.285156 0.0309,1.268437 0.0309,1.268437 0.0625,2.5625 -1.41447,4.576217 -3.78087,5.909104 -7.58203,8.640625 -3.07446,2.227167 -5.85752,4.705515 -8.6875,7.230469 -1.52576,1.332957 -3.12207,2.584439 -4.73047,3.816406 -2.32182,1.663307 -2.32182,1.663307 -3.0625,4.75 -28.38,0 -56.76,0 -86,0 -0.66,-1.65 -1.32,-3.3 -2,-5 C 24.001276,75.438672 21.731806,73.800178 19.003906,72.253906 15.897188,70.301498 13.291113,68.077064 10.5625,65.625 9.5982813,64.770352 8.6340625,63.915703 7.640625,63.035156 5.3125,60.5625 5.3125,60.5625 4.8984375,58.492187 4.0479819,55.691354 2.1248812,54.956896 -0.34619141,53.619873 -0.99507324,53.291565 -1.6439551,52.963257 -2.3125,52.625 -2.9832959,52.278 -3.6540918,51.931001 -4.3452148,51.573486 -15.220365,46.115608 -26.807362,43.026677 -38.6875,40.5625 c 6.389455,-4.259637 14.558941,-3.646296 21.925781,-2.574219 8.2034066,1.771067 14.8992312,5.350234 22.074219,9.574219 0.2908947,-3.989413 -0.2139215,-5.834687 -2.625,-9 -7.0169301,-9.96005 -12.4061759,-21.625889 -11.375,-34 C -6.4808203,0.39350454 -4.5957567,-0.00576632 0,0 Z"
         transform="translate(56.6875,23.4375)"
         style="fill:#784421"
         isInvalidTag="true"
         id="path2" /><path
         d="m 0,0 c 4.3312627,3.034366 8.0443872,6.6158563 11.804688,10.324219 3.182168,2.816304 6.188777,4.585104 9.921874,6.585937 2.768096,1.937667 2.988229,2.958409 3.9375,6.3125 0.07908,4.66554 -0.857072,6.222019 -3.9375,9.6875 -3.875739,2.757738 -6.467713,4.103512 -11.187499,4.4375 -3.9378651,0.173837 -3.9378651,0.173837 -6.1250005,3.0625 -0.556875,0.825 -1.11375,1.65 -1.6875,2.5 -4.0593081,1.353103 -7.8771198,1.957036 -11.90625,0.140625 -1.7219285,-1.00689 -3.4095575,-2.07181 -5.0937505,-3.140625 -2.838699,-0.946233 -4.919117,-1.155272 -7.874999,-1.3125 -4.509202,-0.420683 -6.977088,-1.24447 -10.125,-4.6875 -2.283573,-3.044763 -2.415481,-6.205943 -2.324219,-9.96875 0.534194,-3.346762 2.192981,-5.473764 4.324219,-8.03125 0.989999,-0.66 1.98,-1.32 3,-2 -7.349184,-0.432305 -13.902151,1.182258 -21,3 0.611896,-3.472326 1.009317,-4.008489 3.8125,-6.5625 9.054537,-5.9266062 19.390568,-5.7279732 29.792968,-5.4453123 1.680293,0.00387 1.680293,0.00387 3.394531,0.00781 0.33,-0.33 0.66,-0.66 1,-0.9999999 -2.498547,-0.6519269 -4.998613,-1.2966307 -7.499999,-1.9375001 -0.696094,-0.1824023 -1.392188,-0.3648046 -2.109375,-0.5527343 -8.700001,-2.21527781 -16.946607,-2.6485598 -25.890625,-2.5722656 -1.519805,0.00677 -1.519805,0.00677 -3.070313,0.013672 -2.476626,0.011682 -4.953124,0.028062 -7.429687,0.048828 C -42.986332,-15.202716 -14.256281,-8.2215426 0,0 Z"
         transform="translate(60.273437,82.089844)"
         style="fill:#473636"
         isInvalidTag="true"
         id="path3" /><path
         d="M 0,0 C 1.0255116,0.97382033 2.0305776,1.97033 3,3 2.4278174,2.9842896 1.8556348,2.9685791 1.2661133,2.9523926 -13.816343,2.5955806 -28.638426,2.8388094 -43,8 c 0.495,0.495 0.495,0.495 1,1 1.841353,-0.00424 3.683009,-0.015685 5.523682,-0.065918 C -24.419943,8.6228668 -14.274734,9.5709038 -5,18 -5.495,19.485 -5.495,19.485 -6,21 -6.7154297,20.795039 -7.4308594,20.590078 -8.1679688,20.378906 -15.790603,18.317935 -23.11967,17.368596 -31,17 c 0.531094,0.219141 1.062188,0.438281 1.609375,0.664062 C -24.385461,19.910906 -21.424579,21.84777 -19,27 c 0.604271,4.229898 0.290879,6.394971 -1.5625,10.25 -2.975572,3.357056 -5.148329,4.463249 -9.4375,5.75 -1.374957,0.02353 -2.751369,0.0023 -4.125,-0.0625 -4.528996,0.07305 -5.664338,1.035305 -8.875,4.0625 -4.565983,1.521994 -8.398927,1.747167 -12.8125,-0.3125 C -58,45 -58,45 -60,42 -62.451279,41.38246 -62.451279,41.38246 -65.25,41.125 -70.687257,40.28301 -73.230603,38.967786 -77,35 c -1.639283,-3.278567 -1.791889,-6.482693 -1,-10 1.971483,-2.482386 4.447999,-4.147508 7,-6 1.365637,-1.174291 2.71978,-2.362072 4.0625,-3.5625 1.311999,-1.146407 2.624477,-2.292267 3.9375,-3.4375 0.583945,-0.513047 1.167891,-1.026094 1.769531,-1.554687 C -57.230403,7 -57.230403,7 -55,7 c 0,-0.66 0,-1.32 0,-2 17.526448,-8.6099721 36.320566,-13.713184 55,-5 z"
         transform="translate(249,78)"
         style="fill:#473636"
         isInvalidTag="true"
         id="path4" /><path
         d="m 0,0 c 5.0806702,2.216037 8.9880551,5.301366 12,10 1.52616,5.014527 2.070924,10.267462 0.128906,15.222656 C 9.4239514,29.967413 6.2983035,33.360293 1,35 -3.9596913,35.766716 -8.3751597,35.678296 -12.875,33.3125 -17.426024,29.944742 -20.430808,26.492172 -22,21 -22.66844,15.095443 -21.539672,10.710048 -18,6 -12.738218,1.0434014 -7.243613,-1.7210002 0,0 Z"
         transform="translate(158,63)"
         style="fill:#dad9d7"
         isInvalidTag="true"
         id="path5" /><path
         d="m 0,0 c 5.1628169,2.8531357 8.6674276,6.637668 10.828125,12.148438 1.052808,4.936117 0.437312,8.839625 -2,13.249999 -3.2712479,4.607392 -7.4072587,8.036937 -13.046875,9.15625 -4.8983697,0.227832 -8.740143,-1.021543 -12.953125,-3.40625 -4.186794,-3.954193 -7.258827,-8.406343 -7.4375,-14.25 0.14786,-5.288154 1.933997,-8.8383214 5.4375,-12.7499995 C -13.50072,-0.93094492 -7.2635733,-2.8479478 0,0 Z"
         transform="translate(109.17188,63.851562)"
         style="fill:#dad9d8"
         isInvalidTag="true"
         id="path6" /><path
         d="m 0,0 c 4.4507648,0.82791475 6.7915503,3.7643212 9.9038086,6.9108887 0.6611784,0.6540229 1.3223564,1.3080459 2.0035704,1.9818878 1.392906,1.3851275 2.779445,2.7766835 4.160004,4.1741185 2.119669,2.138903 4.267031,4.246857 6.418457,6.353759 1.34943,1.34914 2.697147,2.699996 4.042969,4.052735 0.645689,0.630407 1.291378,1.260814 1.956634,1.910324 4.238251,4.351974 4.238251,4.351974 4.630768,7.63826 -1.97668,3.809514 -4.759576,6.573669 -7.782715,9.588134 -0.652608,0.661179 -1.305216,1.322357 -1.9776,2.003571 -1.380286,1.391755 -2.765821,2.778321 -4.156189,4.160004 -2.127953,2.121617 -4.227854,4.268523 -6.327148,6.418457 -1.344732,1.349275 -2.691034,2.696987 -4.0390629,4.042968 -0.9409049,0.968535 -0.9409049,0.968535 -1.9008179,1.956635 -1.6484605,1.614063 -3.1828637,3.071501 -5.1148071,4.332428 -2.68511621,-0.04148 -4.0816065,-0.08161 -6,-2 -0.4042969,-2.190186 -0.4042969,-2.190186 0,-5 1.7626479,-2.198622 3.44544231,-4.029207 5.46875,-5.957031 0.5549011,-0.547827 1.1098022,-1.095653 1.6815186,-1.66008 1.7718415,-1.743894 3.5602793,-3.469589 5.3497314,-5.195389 1.2055634,-1.180481 2.4100049,-2.36211 3.6132809,-3.544922 2.949395,-2.89432 5.913794,-5.77244 8.886719,-8.642578 C 17.427694,29.400381 13.913524,25.573313 10.075684,21.860107 9.237793,21.047998 8.3999023,20.235889 7.5366211,19.39917 5.791384,17.717014 4.0386124,16.042643 2.2788086,14.375732 1.4486523,13.566201 0.61849609,12.75667 -0.23681641,11.922607 -0.99462402,11.197349 -1.7524316,10.47209 -2.5332031,9.7248535 -4.1821289,7.5241699 -4.1821289,7.5241699 -4.5537109,4.8742676 -4.0535729,1.7111082 -3.1110618,0.74730921 0,0 Z"
         transform="translate(87.182129,134.47583)"
         style="fill:#d8d8d8"
         isInvalidTag="true"
         id="path7" /><path
         d="m 0,0 c 0.87430664,-0.00630432 1.7486133,-0.01260864 2.6494141,-0.019104 1.4187744,0.0060727 1.4187744,0.0060727 2.8662109,0.01226806 0.9690527,-0.00191345 1.9381055,-0.0038269 2.9365234,-0.00579834 2.0511096,-0.0013625 4.1022276,0.0023382 6.1533206,0.01068116 3.147331,0.01069859 6.294092,1.0665e-4 9.441406,-0.01269532 1.989585,0.0013216 3.979169,0.003884 5.96875,0.0078125 0.94585,-0.00404846 1.891699,-0.00809692 2.866211,-0.01226806 0.874307,0.0063043 1.748613,0.01260864 2.649414,0.019104 1.156772,0.00238678 1.156772,0.00238678 2.336914,0.00482178 1.897461,0.25396728 1.897461,0.25396728 3.897461,2.25396732 0.25,2.5 0.25,2.5 0,5 -2.406262,2.4062622 -2.951072,2.2520146 -6.234375,2.258789 -0.874307,0.0063 -1.748613,0.012609 -2.649414,0.019104 -1.418774,-0.00607 -1.418774,-0.00607 -2.866211,-0.012268 -0.969053,0.00191 -1.938105,0.00383 -2.936523,0.0058 -2.05111,0.00136 -4.102228,-0.00234 -6.153321,-0.010681 -3.147331,-0.010699 -6.294092,-1.067e-4 -9.441406,0.012695 -1.9895846,-0.00132 -3.9791688,-0.00388 -5.96875,-0.00781 -0.9458496,0.00405 -1.8916992,0.0081 -2.8662109,0.012268 C 1.7751074,9.5303778 0.90080078,9.5240735 0,9.5175781 -0.77118164,9.5159869 -1.5423633,9.5143958 -2.3369141,9.5127564 -4.234375,9.2587891 -4.234375,9.2587891 -6.234375,7.2587891 c -0.25,-2.5 -0.25,-2.5 0,-5 C -3.8281128,-0.14747314 -3.2833032,0.00677447 0,0 Z"
         transform="translate(134.23437,190.74121)"
         style="fill:#dcdcdc"
         isInvalidTag="true"
         id="path8" /><path
         d="M 0,0 C 3.8577729,3.1283209 7.4513732,6.5268759 11,10 10.34,10.33 9.68,10.66 9,11 8.6197266,10.613281 8.2394531,10.226563 7.8476562,9.828125 1.4575515,4.1791046 -5.7638585,3.0503602 -13.879883,1.4335937 -16.959444,0.80378029 -20.007948,0.05299745 -23.0625,-0.6875 -31.616407,-2.742734 -39.74312,-3.1371978 -48.5,-3.0625 c -1.519805,0.00677 -1.519805,0.00677 -3.070312,0.013672 C -54.046938,-3.0371459 -56.523437,-3.0207658 -59,-3 -45.014409,-17.854766 -14.186856,-9.8153248 0,0 Z"
         transform="translate(63,84)"
         style="fill:#2b1100"
         isInvalidTag="true"
         id="path9" /><path
         d="M 0,0 C 1.0255116,0.97382033 2.0305776,1.97033 3,3 2.4278174,2.9842896 1.8556348,2.9685791 1.2661133,2.9523926 -14.548785,2.5782529 -29.65857,3.2232861 -44.777344,8.3320313 -47.200872,9.0603676 -49.558902,9.3945273 -52.0625,9.75 -57.884929,10.801913 -61.696189,14.112016 -66,18 c -0.66,-0.33 -1.32,-0.66 -2,-1 7.769656,-7.9660794 7.769656,-7.9660794 11,-10 0.66,0 1.32,0 2,0 0,-0.66 0,-1.32 0,-2 17.526448,-8.6099721 36.320566,-13.713184 55,-5 z"
         transform="translate(249,78)"
         style="fill:#2b1100"
         isInvalidTag="true"
         id="path10" /><path
         d="M 0,0 C 2.7081092,2.4397828 4.8405131,5.0738952 7,8 7.639375,8.7811719 8.27875,9.5623438 8.9375,10.367188 14.288081,16.947539 14.288081,16.947539 15,21 13.545938,19.700625 13.545938,19.700625 12.0625,18.375 -4.2002516,4.5371119 -23.305588,-2.7075671 -44,-7 c 12.958296,-8.638864 32.551778,-0.6680037 44,7 z"
         transform="translate(62,71)"
         style="fill:#2c1100"
         isInvalidTag="true"
         id="path11" /><path
         d="M 0,0 C -2.8767686,2.8767686 -6.2599296,2.9578796 -10.125,3.6875 -19.395179,5.5937963 -27.546851,8.8074825 -36,13 c -1.019648,0.496289 -2.039297,0.992578 -3.089844,1.503906 C -45.709456,17.911196 -51.349541,22.170757 -57,27 -57,20.638831 -50.548591,15.321417 -46.4375,10.875 -34.117181,-1.1855534 -16.30044,-4.9208876 0,0 Z"
         transform="translate(238,63)"
         style="fill:#2b1100"
         isInvalidTag="true"
         id="path12" /><path
         d="M 0,0 C -5.1447657,5.430586 -7.957644,7.1573238 -15.4375,7.4375 -22.536294,7.8397401 -29.138713,9.1877995 -36,11 -35.388104,7.5276733 -34.990682,6.9915107 -32.1875,4.4375 -22.893946,-1.7201921 -10.627514,-2.357445 0,0 Z"
         transform="translate(48,88)"
         style="fill:#2a1100"
         isInvalidTag="true"
         id="path13" /><path
         d="m 0,0 c 1.9021273,1.4190473 3.7093595,2.8694184 5.4648437,4.4648437 -0.33,0.99 -0.66,1.9800001 -1,3 C 3.7842188,7.2598828 3.1035938,7.0549219 2.4023438,6.84375 -3.8392202,5.10906 -9.4797532,4.3264827 -15.910156,4.2148437 -22.68944,4.0450443 -22.68944,4.0450443 -25.886719,1.8515625 -27.535156,-0.09765625 -27.535156,-0.09765625 -29.535156,-3.5351563 -20.150281,-6.2289632 -8.3772227,-5.072802 0,0 Z"
         transform="translate(238.53516,91.535156)"
         style="fill:#2a1000"
         isInvalidTag="true"
         id="path14" /><path
         d="M 0,0 C 1.2465234,-0.01417969 2.4930469,-0.02835937 3.7773438,-0.04296875 7.0625,0.1875 7.0625,0.1875 10.0625,2.1875 c 0,0.66 0,1.32 0,2 -17.49,0 -34.98,0 -53,0 0.33,-0.66 0.66,-1.32 1,-2 16.335,0.495 16.335,0.495 33,1 0,-0.66 0,-1.32 0,-2 C -5.9816289,-0.29043555 -3.2875236,0.01696349 0,0 Z"
         transform="translate(127.9375,101.8125)"
         style="fill:#7c5c47"
         isInvalidTag="true"
         id="path15" /><path
         d="M 0,0 C 3.875,1.75 3.875,1.75 5,4 5.1679687,6.0234375 5.1679687,6.0234375 5.1875,8.375 5.20168,9.1458594 5.215859,9.9167187 5.230469,10.710938 4.9780161,13.218349 4.2519347,14.832619 3,17 1.68,17 0.36,17 -1,17 -2.4241906,14.151619 -2.1699551,11.672121 -2.1875,8.5 -2.2087695,6.7520312 -2.2087695,6.7520312 -2.2304688,4.96875 -2,2 -2,2 0,0 Z"
         transform="translate(152,74)"
         style="fill:#c2c92c"
         isInvalidTag="true"
         id="path16" /><path
         d="M 0,0 C 0.99,0 1.98,0 3,0 5.151647,3.2274706 5.2724508,4.2050564 5.25,7.9375 5.25773,9.2194727 5.25773,9.2194727 5.265625,10.527344 4.9871363,13.119746 4.3066917,14.765142 3,17 1.0625,16.6875 1.0625,16.6875 -1,16 -1.9755151,13.073455 -2.1647809,11.05345 -2.1875,8 -2.2016797,7.13375 -2.2158594,6.2675 -2.2304688,5.375 -2,3 -2,3 0,0 Z"
         transform="translate(101,74)"
         style="fill:#c1c929"
         isInvalidTag="true"
         id="path17" /><path
         d="M 0,0 C 1.8871875,-0.00386719 1.8871875,-0.00386719 3.8125,-0.0078125 7,0.125 7,0.125 9,1.125 c 0,0.66 0,1.32 0,2 -5.94,0 -11.88,0 -18,0 0,-0.66 0,-1.32 0,-2 C -6.0276021,-0.36119895 -3.3038042,-0.00677009 0,0 Z"
         transform="translate(128,101.875)"
         style="fill:#d9d7d6"
         isInvalidTag="true"
         id="path18" /><path
         d="M 0,0 C 0.66,0.66 1.32,1.32 2,2 -0.97,4.31 -3.94,6.62 -7,9 -7.66,8.67 -8.32,8.34 -9,8 -7.8781144,6.8511172 -6.7523832,5.7059886 -5.625,4.5625 -4.9985156,3.9244141 -4.3720312,3.2863281 -3.7265625,2.6289063 -2,1 -2,1 0,0 Z"
         transform="translate(190,87)"
         style="fill:#331806"
         isInvalidTag="true"
         id="path19" /><path
         d="M 0,0 C 4.2742558,1.5830577 6.2653179,4.505684 9,8 4.5654103,6.6062718 2.1262163,4.3941776 -1,1 -0.67,0.67 -0.34,0.34 0,0 Z"
         transform="translate(65,87)"
         style="fill:#331706"
         isInvalidTag="true"
         id="path20" /></g></g></svg>
