<?xml version="1.0" encoding="UTF-8"?>
<svg xmlns="http://www.w3.org/2000/svg" xmlns:xlink="http://www.w3.org/1999/xlink" width="128px" height="128px" viewBox="0 0 128 128" version="1.1">
<defs>
<filter id="alpha" filterUnits="objectBoundingBox" x="0%" y="0%" width="100%" height="100%">
  <feColorMatrix type="matrix" in="SourceGraphic" values="0 0 0 0 1 0 0 0 0 1 0 0 0 0 1 0 0 0 1 0"/>
</filter>
<mask id="mask0">
  <g filter="url(#alpha)">
<rect x="0" y="0" width="128" height="128" style="fill:rgb(0%,0%,0%);fill-opacity:0.101961;stroke:none;"/>
  </g>
</mask>
<clipPath id="clip1">
  <rect x="0" y="0" width="128" height="128"/>
</clipPath>
<g id="surface5" clip-path="url(#clip1)">
<path style=" stroke:none;fill-rule:nonzero;fill:rgb(32.941176%,34.901961%,43.137255%);fill-opacity:1;" d="M 21.621094 102.21875 L 18 114 L 32.558594 105.039062 C 28.839844 104.414062 25.179688 103.472656 21.621094 102.21875 Z M 21.621094 102.21875 "/>
<path style=" stroke:none;fill-rule:nonzero;fill:rgb(32.941176%,34.901961%,43.137255%);fill-opacity:1;" d="M 60.679688 24 C 82.339844 29.519531 98 45.339844 98 64 C 98 87.199219 73.820312 106 44 106 C 43.101562 106 42.21875 106 41.320312 106 C 46.777344 107.347656 52.378906 108.019531 58 108 C 87.820312 108 112 89.199219 112 66 C 112 43.5 89.261719 25.140625 60.679688 24 Z M 60.679688 24 "/>
</g>
</defs>
<g id="surface1">
<path style="fill-rule:nonzero;fill:rgb(100%,60%,60%);fill-opacity:1;stroke-width:2;stroke-linecap:round;stroke-linejoin:round;stroke:rgb(32.941176%,34.901961%,43.137255%);stroke-opacity:1;stroke-miterlimit:4;" d="M 35 8 C 20.089844 8 8 17.400391 8 29 C 8 35.390625 11.679688 41.109375 17.470703 45 L 15 53 L 23.259766 47.919922 C 27.017578 49.310547 30.994141 50.013672 35 50 C 49.910156 50 62 40.599609 62 29 C 62 17.400391 49.910156 8 35 8 Z M 35 8 " transform="matrix(2,0,0,2,0,0)"/>
<path style="fill-rule:nonzero;fill:rgb(60.392157%,95.686275%,23.137255%);fill-opacity:1;stroke-width:2;stroke-linecap:round;stroke-linejoin:round;stroke:rgb(32.941176%,34.901961%,43.137255%);stroke-opacity:1;stroke-miterlimit:4;" d="M 29 12 C 14.089844 12 2 21.400391 2 33 C 2 39.390625 5.679688 45.109375 11.470703 49 L 9 57 L 17.259766 51.919922 C 21.017578 53.310547 24.994141 54.013672 29 54 C 43.910156 54 56 44.599609 56 33 C 56 21.400391 43.910156 12 29 12 Z M 29 12 " transform="matrix(2,0,0,2,0,0)"/>
<use xlink:href="#surface5" mask="url(#mask0)"/>
<path style=" stroke:none;fill-rule:nonzero;fill:rgb(32.941176%,34.901961%,43.137255%);fill-opacity:1;" d="M 66 54 C 66 56.210938 64.210938 58 62 58 C 59.789062 58 58 56.210938 58 54 C 58 51.789062 59.789062 50 62 50 C 64.210938 50 66 51.789062 66 54 Z M 66 54 "/>
<path style=" stroke:none;fill-rule:nonzero;fill:rgb(32.941176%,34.901961%,43.137255%);fill-opacity:1;" d="M 32 54 C 32 56.210938 30.210938 58 28 58 C 25.789062 58 24 56.210938 24 54 C 24 51.789062 25.789062 50 28 50 C 30.210938 50 32 51.789062 32 54 Z M 32 54 "/>
<path style=" stroke:none;fill-rule:nonzero;fill:rgb(38.039216%,77.254902%,65.882353%);fill-opacity:1;" d="M 66 64 C 66 66.210938 64.210938 68 62 68 C 59.789062 68 58 66.210938 58 64 C 58 61.789062 59.789062 60 62 60 C 64.210938 60 66 61.789062 66 64 Z M 66 64 "/>
<path style=" stroke:none;fill-rule:nonzero;fill:rgb(38.039216%,77.254902%,65.882353%);fill-opacity:1;" d="M 32 64 C 32 66.210938 30.210938 68 28 68 C 25.789062 68 24 66.210938 24 64 C 24 61.789062 25.789062 60 28 60 C 30.210938 60 32 61.789062 32 64 Z M 32 64 "/>
<path style=" stroke:none;fill-rule:nonzero;fill:rgb(32.941176%,34.901961%,43.137255%);fill-opacity:1;" d="M 52 72 C 52 66.476562 48.417969 62 44 62 C 39.582031 62 36 66.476562 36 72 C 36 77.523438 39.582031 82 44 82 C 48.417969 82 52 77.523438 52 72 Z M 52 72 "/>
<path style=" stroke:none;fill-rule:nonzero;fill:rgb(100%,57.254902%,49.019608%);fill-opacity:1;" d="M 48 78 C 48 76.894531 46.210938 76 44 76 C 41.789062 76 40 76.894531 40 78 C 40 79.105469 41.789062 80 44 80 C 46.210938 80 48 79.105469 48 78 Z M 48 78 "/>
</g>
</svg>
