<?xml version="1.0" encoding="UTF-8"?>
<svg xmlns="http://www.w3.org/2000/svg" xmlns:xlink="http://www.w3.org/1999/xlink" width="128px" height="128px" viewBox="0 0 128 128" version="1.1">
<g id="surface1">
<path style=" stroke:none;fill-rule:evenodd;fill:rgb(9.803922%,53.333333%,87.843137%);fill-opacity:1;" d="M 106.375 52.125 C 106.292969 52.125 106.207031 52.125 106.125 52.125 C 92.21875 48.195312 80.507812 51.609375 71 62.375 C 67.109375 67.320312 64.734375 72.90625 63.875 79.125 C 62.5 69.417969 57.835938 61.710938 49.875 56 C 40.96875 50.492188 31.46875 49.199219 21.375 52.125 C 22.742188 38.425781 29.074219 27.71875 40.375 20 C 52.527344 12.566406 65.363281 11.148438 78.875 15.75 C 89.980469 20.019531 98.019531 27.5625 103 38.375 C 104.949219 42.757812 106.074219 47.339844 106.375 52.125 Z M 106.375 52.125 "/>
<path style=" stroke:none;fill-rule:evenodd;fill:rgb(5.098039%,70.196078%,88.627451%);fill-opacity:1;" d="M 63.875 79.125 C 63.875 90.875 63.875 102.625 63.875 114.375 C 63.875 114.457031 63.875 114.542969 63.875 114.625 C 63.792969 114.625 63.707031 114.625 63.625 114.625 C 63.449219 114.070312 63.117188 113.613281 62.625 113.25 C 53.457031 104.667969 44.292969 96.082031 35.125 87.5 C 25.253906 77.9375 20.585938 66.230469 21.125 52.375 C 21.125 52.207031 21.207031 52.125 21.375 52.125 C 31.46875 49.199219 40.96875 50.492188 49.875 56 C 57.835938 61.710938 62.5 69.417969 63.875 79.125 Z M 63.875 79.125 "/>
<path style=" stroke:none;fill-rule:evenodd;fill:rgb(18.823529%,32.54902%,99.607843%);fill-opacity:1;" d="M 106.125 52.125 C 107.238281 66.191406 102.652344 78.066406 92.375 87.75 C 82.832031 96.585938 73.332031 105.460938 63.875 114.375 C 63.875 102.625 63.875 90.875 63.875 79.125 C 64.734375 72.90625 67.109375 67.320312 71 62.375 C 80.507812 51.609375 92.21875 48.195312 106.125 52.125 Z M 106.125 52.125 "/>
<path style=" stroke:none;fill-rule:evenodd;fill:rgb(17.254902%,83.137255%,92.941176%);fill-opacity:1;" d="M 21.125 52.375 C 20.585938 66.230469 25.253906 77.9375 35.125 87.5 C 44.292969 96.082031 53.457031 104.667969 62.625 113.25 C 63.117188 113.613281 63.449219 114.070312 63.625 114.625 C 51.957031 114.667969 40.292969 114.625 28.625 114.5 C 16.292969 112.832031 7.5 106.371094 2.25 95.125 C 1.167969 92.339844 0.375 89.507812 -0.125 86.625 C -0.125 83.957031 -0.125 81.292969 -0.125 78.625 C 1.839844 66.742188 8.253906 58.199219 19.125 53 C 19.773438 52.714844 20.441406 52.507812 21.125 52.375 Z M 21.125 52.375 "/>
<path style=" stroke:none;fill-rule:evenodd;fill:rgb(19.215686%,41.176471%,100%);fill-opacity:1;" d="M 106.125 52.125 C 106.207031 52.125 106.292969 52.125 106.375 52.125 C 118.605469 56.855469 125.773438 65.691406 127.875 78.625 C 127.875 81.292969 127.875 83.957031 127.875 86.625 C 125.882812 98.328125 119.550781 106.785156 108.875 112 C 105.757812 113.34375 102.507812 114.175781 99.125 114.5 C 87.375 114.625 75.625 114.667969 63.875 114.625 C 63.875 114.542969 63.875 114.457031 63.875 114.375 C 73.332031 105.460938 82.832031 96.585938 92.375 87.75 C 102.652344 78.066406 107.238281 66.191406 106.125 52.125 Z M 106.125 52.125 "/>
</g>
</svg>
