<?xml version="1.0" encoding="UTF-8"?>
<svg xmlns="http://www.w3.org/2000/svg" xmlns:xlink="http://www.w3.org/1999/xlink" width="128px" height="128px" viewBox="0 0 128 128" version="1.1">
<g id="surface1">
<path style=" stroke:none;fill-rule:nonzero;fill:rgb(100%,0%,0%);fill-opacity:1;" d="M 64 3.199219 C 30.421875 3.199219 3.199219 30.492188 3.199219 64.160156 C 6.402344 145.023438 121.609375 145.003906 124.800781 64.160156 C 124.800781 30.492188 97.578125 3.199219 64 3.199219 Z M 64 99.070312 C 44.753906 99.070312 29.09375 83.414062 29.09375 64.164062 C 30.042969 40.277344 47.851562 29.433594 64 29.433594 C 80.148438 29.433594 97.960938 40.277344 98.902344 64.085938 C 98.90625 83.414062 83.246094 99.070312 64 99.070312 Z M 64 99.070312 "/>
<path style=" stroke:none;fill-rule:nonzero;fill:rgb(100%,0%,0%);fill-opacity:1;" d="M 64.003906 33.410156 C 43.589844 33.410156 33.660156 49.394531 33.070312 64.246094 C 33.074219 81.21875 46.945312 95.09375 64 95.09375 C 81.054688 95.09375 94.925781 81.21875 94.925781 64.167969 C 94.34375 49.394531 84.414062 33.414062 64.003906 33.410156 Z M 64.003906 33.410156 "/>
<path style=" stroke:none;fill-rule:nonzero;fill:rgb(94.509804%,94.509804%,94.509804%);fill-opacity:1;" d="M 52.550781 67.234375 C 52.550781 70.53125 52.550781 77.304688 52.550781 80.625 C 52.550781 80.625 80.457031 63.449219 80.457031 63.449219 L 52.550781 47.707031 Z M 52.550781 67.234375 "/>
</g>
</svg>
