<?xml version="1.0" encoding="UTF-8"?>
<svg xmlns="http://www.w3.org/2000/svg" xmlns:xlink="http://www.w3.org/1999/xlink" width="128px" height="128px" viewBox="0 0 128 128" version="1.1">
<g id="surface1">
<path style=" stroke:none;fill-rule:nonzero;fill:rgb(100%,100%,100%);fill-opacity:1;" d="M 0.0117188 95.347656 L 0.0117188 95.351562 C 0.0898438 98.191406 0.113281 101.046875 0.59375 103.867188 C 1.101562 106.851562 1.828125 109.761719 3.210938 112.472656 C 5.085938 116.136719 7.652344 119.234375 10.90625 121.761719 C 13.238281 123.578125 15.789062 125.019531 18.609375 125.929688 C 22.71875 127.253906 26.960938 127.761719 31.265625 127.785156 C 33.953125 127.804688 36.636719 127.871094 39.324219 127.859375 C 58.832031 127.777344 78.34375 128 97.855469 127.738281 C 100.441406 127.703125 102.988281 127.390625 105.53125 126.925781 C 110.402344 126.035156 114.703125 123.957031 118.386719 120.679688 C 122.679688 116.859375 125.574219 112.179688 126.882812 106.535156 C 127.738281 102.847656 127.953125 99.101562 127.988281 95.347656 L 127.988281 94.597656 C 127.988281 94.304688 127.875 30.765625 127.867188 29.925781 C 127.839844 27.621094 127.667969 25.332031 127.234375 23.058594 C 126.707031 20.292969 125.964844 17.597656 124.636719 15.097656 C 123.234375 12.453125 121.480469 10.074219 119.308594 7.996094 C 115.984375 4.8125 112.148438 2.5625 107.679688 1.371094 C 103.644531 0.296875 99.53125 0.0585938 95.382812 0.0625 C 95.371094 0.0429688 95.363281 0.0234375 95.359375 0 L 32.617188 0 C 32.617188 0.0195312 32.617188 0.0429688 32.613281 0.0625 C 30.257812 0.105469 27.902344 0.0898438 25.5625 0.378906 C 22.996094 0.695312 20.457031 1.175781 18.03125 2.070312 C 14.207031 3.484375 10.886719 5.683594 8.050781 8.617188 C 4.835938 11.941406 2.566406 15.789062 1.367188 20.269531 C 0.292969 24.265625 0.0585938 28.339844 0.0546875 32.445312 "/>
<path style=" stroke:none;fill-rule:nonzero;fill:rgb(100%,0%,0%);fill-opacity:1;" d="M 66.265625 99.160156 L 45.285156 98.777344 C 38.492188 98.644531 31.683594 98.910156 25.023438 97.527344 C 14.890625 95.460938 14.171875 85.328125 13.421875 76.828125 C 12.386719 64.878906 12.785156 52.714844 14.738281 40.867188 C 15.84375 34.21875 20.179688 30.25 26.890625 29.820312 C 49.542969 28.25 72.34375 28.4375 94.941406 29.167969 C 97.328125 29.234375 99.734375 29.601562 102.085938 30.019531 C 113.703125 32.050781 113.988281 43.535156 114.742188 53.199219 C 115.492188 62.964844 115.175781 72.78125 113.738281 82.480469 C 112.585938 90.511719 110.382812 97.246094 101.085938 97.894531 C 89.433594 98.746094 78.050781 99.429688 66.367188 99.210938 C 66.367188 99.160156 66.300781 99.160156 66.265625 99.160156 Z M 53.929688 78.828125 C 62.710938 73.796875 71.324219 68.847656 80.054688 63.847656 C 71.257812 58.8125 62.660156 53.863281 53.929688 48.863281 Z M 53.929688 78.828125 "/>
</g>
</svg>
