<?xml version="1.0" encoding="UTF-8"?>
<!DOCTYPE svg PUBLIC "-//W3C//DTD SVG 1.1//EN" "http://www.w3.org/Graphics/SVG/1.1/DTD/svg11.dtd">
<svg xmlns="http://www.w3.org/2000/svg" version="1.1" width="128px" height="128px" style="shape-rendering:geometricPrecision; text-rendering:geometricPrecision; image-rendering:optimizeQuality; fill-rule:evenodd; clip-rule:evenodd" xmlns:xlink="http://www.w3.org/1999/xlink">
<g><path style="opacity:0.985" fill="#0b0b0c" d="M 79.5,9.5 C 85.818,11.1603 91.4847,14.1603 96.5,18.5C 104.57,27.5615 106.57,37.8948 102.5,49.5C 95.0553,63.501 83.3886,69.001 67.5,66C 63.1308,64.7334 59.2975,62.5667 56,59.5C 55.5008,64.1548 55.3342,68.8215 55.5,73.5C 55.5,73.8333 55.5,74.1667 55.5,74.5C 55.5,76.8333 55.5,79.1667 55.5,81.5C 55.5,85.5 55.5,89.5 55.5,93.5C 55.1667,93.5 54.8333,93.5 54.5,93.5C 52.1667,93.5 49.8333,93.5 47.5,93.5C 46.5084,86.3524 46.175,79.0191 46.5,71.5C 46.2249,58.7963 46.5582,46.1296 47.5,33.5C 48.4126,28.3441 50.4126,23.6775 53.5,19.5C 54.1667,19.5 54.5,19.1667 54.5,18.5C 58.251,15.4077 62.251,12.7411 66.5,10.5C 70.7853,9.70509 75.1186,9.37176 79.5,9.5 Z"/></g>
<g><path style="opacity:0.921" fill="#eaeff4" d="M 96.5,18.5 C 91.4847,14.1603 85.818,11.1603 79.5,9.5C 84.8617,9.52755 90.1951,9.19422 95.5,8.5C 96.0508,11.8067 96.3841,15.1401 96.5,18.5 Z"/></g>
<g><path style="opacity:0.91" fill="#fefeff" d="M 48.5,11.5 C 48.5,13.8333 48.5,16.1667 48.5,18.5C 46.5,18.5 44.5,18.5 42.5,18.5C 42.5,16.5 42.5,14.5 42.5,12.5C 44.3792,11.6586 46.3792,11.3253 48.5,11.5 Z"/></g>
<g><path style="opacity:0.932" fill="#f8f9fb" d="M 66.5,10.5 C 62.251,12.7411 58.251,15.4077 54.5,18.5C 52.8333,18.5 51.1667,18.5 49.5,18.5C 49.5,16.1667 49.5,13.8333 49.5,11.5C 55.181,11.3651 60.8477,11.0318 66.5,10.5 Z"/></g>
<g><path style="opacity:1" fill="#e7edf5" d="M 79.5,25.5 C 79.631,24.7611 79.4643,24.0944 79,23.5C 74.2633,24.4692 69.43,24.8025 64.5,24.5C 64.5,23.5 64.5,22.5 64.5,21.5C 70.4845,18.5619 76.8178,16.7285 83.5,16C 84.8993,17.0616 85.8993,18.395 86.5,20C 84.5308,22.3154 82.1974,24.1487 79.5,25.5 Z"/></g>
<g><path style="opacity:0.961" fill="#0a0a0b" d="M 33.5,19.5 C 42.3919,24.0154 43.7252,30.182 37.5,38C 42.3495,42.9001 42.6828,48.2335 38.5,54C 42.0537,58.2661 42.387,62.7661 39.5,67.5C 38.9033,67.7352 38.5699,68.2352 38.5,69C 42.673,74.6242 42.3397,79.9575 37.5,85C 41.4361,88.4442 42.4361,92.6109 40.5,97.5C 38.7656,100.2 36.4323,102.2 33.5,103.5C 32.5084,103.328 31.8417,103.662 31.5,104.5C 29.0523,104.915 27.7189,103.915 27.5,101.5C 30.4207,99.4326 33.2541,97.0992 36,94.5C 36.5205,92.7111 36.1871,91.0444 35,89.5C 31.2398,88.6425 27.4065,88.6425 23.5,89.5C 17.8364,88.8406 16.503,86.1739 19.5,81.5C 20.7362,80.7542 22.0695,80.4208 23.5,80.5C 26.1933,80.5715 28.8599,80.9049 31.5,81.5C 37.8785,78.8606 38.0451,75.8606 32,72.5C 28.8948,73.3672 25.7281,73.7006 22.5,73.5C 16.0167,70.7294 16.0167,67.7294 22.5,64.5C 25.6954,65.236 29.0287,65.9027 32.5,66.5C 37.9254,62.873 37.7587,59.5396 32,56.5C 28.6758,57.0504 25.5091,57.7171 22.5,58.5C 16.5738,55.7563 16.2404,52.7563 21.5,49.5C 24.8835,49.3396 28.2169,49.673 31.5,50.5C 36.5965,49.0425 37.5965,46.2091 34.5,42C 30.1951,42.077 25.8618,42.2437 21.5,42.5C 16.651,39.9645 16.3176,36.9645 20.5,33.5C 24.2155,33.3203 27.8822,33.6536 31.5,34.5C 34.8039,33.7131 36.3039,31.7131 36,28.5C 33.2541,25.9008 30.4207,23.5674 27.5,21.5C 27.6082,20.5581 27.9415,19.7247 28.5,19C 30.1966,18.6155 31.8632,18.7822 33.5,19.5 Z"/></g>
<g><path style="opacity:1" fill="#f4f8fb" d="M 53.5,19.5 C 50.4126,23.6775 48.4126,28.3441 47.5,33.5C 46.1667,33.5 44.8333,33.5 43.5,33.5C 43.5,31.5 43.5,29.5 43.5,27.5C 47.5,27.1667 47.5,26.8333 43.5,26.5C 43.3259,24.139 42.9926,21.8056 42.5,19.5C 46.1667,19.5 49.8333,19.5 53.5,19.5 Z"/></g>
<g><path style="opacity:1" fill="#f6f7f8" d="M 78.5,26.5 C 78.3915,28.5138 79.0582,30.1805 80.5,31.5C 77.8333,31.5 75.1667,31.5 72.5,31.5C 72.5,29.5 72.5,27.5 72.5,25.5C 74.7354,25.2053 76.7354,25.5386 78.5,26.5 Z"/></g>
<g><path style="opacity:1" fill="#f0f5fa" d="M 41.5,12.5 C 41.5,14.8333 41.5,17.1667 41.5,19.5C 39.5,19.5 37.5,19.5 35.5,19.5C 35.6602,17.8008 35.4935,16.1341 35,14.5C 34.8019,16.3817 34.3019,18.0484 33.5,19.5C 31.8632,18.7822 30.1966,18.6155 28.5,19C 27.9415,19.7247 27.6082,20.5581 27.5,21.5C 30.4207,23.5674 33.2541,25.9008 36,28.5C 36.3039,31.7131 34.8039,33.7131 31.5,34.5C 27.8822,33.6536 24.2155,33.3203 20.5,33.5C 20.5,26.8333 20.5,20.1667 20.5,13.5C 27.4756,12.7684 34.4756,12.4351 41.5,12.5 Z"/></g>
<g><path style="opacity:1" fill="#fbfdfe" d="M 79.5,33.5 C 79.307,37.5662 79.6403,41.5662 80.5,45.5C 75.34,48.7108 73.34,47.0441 74.5,40.5C 74.1211,39.2759 71.4544,38.9426 66.5,39.5C 66.7394,37.5328 66.4061,35.6995 65.5,34C 70.7937,33.1822 70.7937,32.6822 65.5,32.5C 65.5,30.1667 65.5,27.8333 65.5,25.5C 67.5,25.5 69.5,25.5 71.5,25.5C 71.5775,29.8766 72.0775,34.2099 73,38.5C 73.4955,36.5273 73.6621,34.5273 73.5,32.5C 75.7354,32.2053 77.7354,32.5386 79.5,33.5 Z"/></g>
<g><path style="opacity:1" fill="#dee9f6" d="M 83.5,46.5 C 85.1667,46.5 86.8333,46.5 88.5,46.5C 89.5008,40.8357 87.1675,38.5024 81.5,39.5C 81.1924,37.076 81.5258,34.7427 82.5,32.5C 83.7362,33.2458 85.0695,33.5792 86.5,33.5C 86.1604,29.8691 86.9937,26.5358 89,23.5C 93.0058,28.1899 96.5058,33.1899 99.5,38.5C 96.5504,43.5548 93.2171,48.3882 89.5,53C 86.0704,52.3974 84.0704,50.2307 83.5,46.5 Z"/></g>
<g><path style="opacity:1" fill="#c0dcf9" d="M 64.5,21.5 C 64.5,22.5 64.5,23.5 64.5,24.5C 69.43,24.8025 74.2633,24.4692 79,23.5C 79.4643,24.0944 79.631,24.7611 79.5,25.5C 79.5,26.1667 79.1667,26.5 78.5,26.5C 76.7354,25.5386 74.7354,25.2053 72.5,25.5C 72.5,27.5 72.5,29.5 72.5,31.5C 75.1667,31.5 77.8333,31.5 80.5,31.5C 80.6716,32.4916 80.3382,33.1583 79.5,33.5C 77.7354,32.5386 75.7354,32.2053 73.5,32.5C 73.6621,34.5273 73.4955,36.5273 73,38.5C 72.0775,34.2099 71.5775,29.8766 71.5,25.5C 69.5,25.5 67.5,25.5 65.5,25.5C 65.5,27.8333 65.5,30.1667 65.5,32.5C 70.7937,32.6822 70.7937,33.1822 65.5,34C 66.4061,35.6995 66.7394,37.5328 66.5,39.5C 71.4544,38.9426 74.1211,39.2759 74.5,40.5C 73.34,47.0441 75.34,48.7108 80.5,45.5C 81.3382,45.8417 81.6716,46.5084 81.5,47.5C 79.5648,48.1495 77.5648,48.4828 75.5,48.5C 75.1667,55.1667 74.8333,55.1667 74.5,48.5C 72.076,48.1924 69.7427,48.5258 67.5,49.5C 68.3482,51.4086 68.6816,53.4086 68.5,55.5C 71.1194,55.7683 73.6194,55.435 76,54.5C 76.4935,56.1341 76.6602,57.8008 76.5,59.5C 72.2157,58.7387 68.2157,57.4053 64.5,55.5C 65.5,55.5 66.5,55.5 67.5,55.5C 67.7593,52.4349 66.7593,49.9349 64.5,48C 65.5156,47.4806 66.1822,46.6473 66.5,45.5C 65.8367,42.1942 65.3367,38.8608 65,35.5C 63.2458,33.75 61.0792,33.0833 58.5,33.5C 57.2274,34.4176 57.2274,34.0843 58.5,32.5C 60.5,32.5 62.5,32.5 64.5,32.5C 64.5,30.5 64.5,28.5 64.5,26.5C 61.8333,26.5 59.1667,26.5 56.5,26.5C 56.1734,31.2137 56.5067,35.8804 57.5,40.5C 58.1924,39.9747 58.6924,39.3081 59,38.5C 59.7724,39.8491 60.9391,40.6824 62.5,41C 61.552,41.4828 60.552,41.6495 59.5,41.5C 59.1667,48.1667 58.8333,48.1667 58.5,41.5C 57.5,41.5 56.5,41.5 55.5,41.5C 55.5,35.5 55.5,29.5 55.5,23.5C 58.5,22.8333 61.5,22.1667 64.5,21.5 Z"/></g>
<g><path style="opacity:1" fill="#f8f8f8" d="M 81.5,39.5 C 87.1675,38.5024 89.5008,40.8357 88.5,46.5C 86.8333,46.5 85.1667,46.5 83.5,46.5C 82.0762,44.4855 81.4095,42.1522 81.5,39.5 Z"/></g>
<g><path style="opacity:1" fill="#fefeff" d="M 66.5,40.5 C 68.8333,40.5 71.1667,40.5 73.5,40.5C 73.5,42.8333 73.5,45.1667 73.5,47.5C 71.5,47.5 69.5,47.5 67.5,47.5C 67.552,45.0971 67.2186,42.7638 66.5,40.5 Z"/></g>
<g><path style="opacity:1" fill="#f3f7fb" d="M 64.5,55.5 C 61.5,54.8333 58.5,54.1667 55.5,53.5C 55.5,49.5 55.5,45.5 55.5,41.5C 56.5,41.5 57.5,41.5 58.5,41.5C 58.8333,48.1667 59.1667,48.1667 59.5,41.5C 60.552,41.6495 61.552,41.4828 62.5,41C 60.9391,40.6824 59.7724,39.8491 59,38.5C 58.6924,39.3081 58.1924,39.9747 57.5,40.5C 56.5067,35.8804 56.1734,31.2137 56.5,26.5C 59.1667,26.5 61.8333,26.5 64.5,26.5C 64.5,28.5 64.5,30.5 64.5,32.5C 62.5,32.5 60.5,32.5 58.5,32.5C 57.2274,34.0843 57.2274,34.4176 58.5,33.5C 61.0792,33.0833 63.2458,33.75 65,35.5C 65.3367,38.8608 65.8367,42.1942 66.5,45.5C 66.1822,46.6473 65.5156,47.4806 64.5,48C 66.7593,49.9349 67.7593,52.4349 67.5,55.5C 66.5,55.5 65.5,55.5 64.5,55.5 Z"/></g>
<g><path style="opacity:1" fill="#e8eef4" d="M 21.5,49.5 C 21.5,47.1667 21.5,44.8333 21.5,42.5C 25.8618,42.2437 30.1951,42.077 34.5,42C 37.5965,46.2091 36.5965,49.0425 31.5,50.5C 28.2169,49.673 24.8835,49.3396 21.5,49.5 Z"/></g>
<g><path style="opacity:1" fill="#d9e9fa" d="M 48.5,11.5 C 48.8333,11.5 49.1667,11.5 49.5,11.5C 49.5,13.8333 49.5,16.1667 49.5,18.5C 51.1667,18.5 52.8333,18.5 54.5,18.5C 54.5,19.1667 54.1667,19.5 53.5,19.5C 49.8333,19.5 46.1667,19.5 42.5,19.5C 42.9926,21.8056 43.3259,24.139 43.5,26.5C 47.5,26.8333 47.5,27.1667 43.5,27.5C 43.5,29.5 43.5,31.5 43.5,33.5C 44.8333,33.5 46.1667,33.5 47.5,33.5C 46.5582,46.1296 46.2249,58.7963 46.5,71.5C 45.5489,70.0813 45.2155,68.4147 45.5,66.5C 43.4352,66.5172 41.4352,66.8505 39.5,67.5C 42.387,62.7661 42.0537,58.2661 38.5,54C 42.6828,48.2335 42.3495,42.9001 37.5,38C 43.7252,30.182 42.3919,24.0154 33.5,19.5C 34.3019,18.0484 34.8019,16.3817 35,14.5C 35.4935,16.1341 35.6602,17.8008 35.5,19.5C 37.5,19.5 39.5,19.5 41.5,19.5C 41.5,17.1667 41.5,14.8333 41.5,12.5C 41.8333,12.5 42.1667,12.5 42.5,12.5C 42.5,14.5 42.5,16.5 42.5,18.5C 44.5,18.5 46.5,18.5 48.5,18.5C 48.5,16.1667 48.5,13.8333 48.5,11.5 Z"/></g>
<g><path style="opacity:1" fill="#edf2f8" d="M 81.5,47.5 C 83.1215,50.5672 85.1215,53.4005 87.5,56C 85.0849,61.6814 81.4183,62.848 76.5,59.5C 76.6602,57.8008 76.4935,56.1341 76,54.5C 73.6194,55.435 71.1194,55.7683 68.5,55.5C 68.6816,53.4086 68.3482,51.4086 67.5,49.5C 69.7427,48.5258 72.076,48.1924 74.5,48.5C 74.8333,55.1667 75.1667,55.1667 75.5,48.5C 77.5648,48.4828 79.5648,48.1495 81.5,47.5 Z"/></g>
<g><path style="opacity:1" fill="#dce2e8" d="M 22.5,64.5 C 22.5,62.5 22.5,60.5 22.5,58.5C 25.5091,57.7171 28.6758,57.0504 32,56.5C 37.7587,59.5396 37.9254,62.873 32.5,66.5C 29.0287,65.9027 25.6954,65.236 22.5,64.5 Z"/></g>
<g><path style="opacity:0.834" fill="#fbfbfb" d="M 104.5,62.5 C 104.833,63.8333 105.167,65.1667 105.5,66.5C 103.784,66.3713 102.117,66.038 100.5,65.5C 100.5,64.5 100.5,63.5 100.5,62.5C 101.833,62.5 103.167,62.5 104.5,62.5 Z"/></g>
<g><path style="opacity:1" fill="#f0f4f9" d="M 102.5,49.5 C 103.059,53.8526 103.725,58.186 104.5,62.5C 103.167,62.5 101.833,62.5 100.5,62.5C 100.5,63.5 100.5,64.5 100.5,65.5C 88.1739,65.4955 78.5072,70.4955 71.5,80.5C 70.9969,75.5 70.6636,75.8333 70.5,81.5C 68.1667,81.5 65.8333,81.5 63.5,81.5C 63.7076,79.0799 63.3742,76.7466 62.5,74.5C 65.0341,73.2234 67.5341,73.2234 70,74.5C 71.3988,73.7734 72.8988,73.2734 74.5,73C 73.2068,72.51 71.8734,72.3433 70.5,72.5C 70.1667,65.8333 69.8333,65.8333 69.5,72.5C 67.1667,72.5 64.8333,72.5 62.5,72.5C 62.6602,70.8008 62.4935,69.1341 62,67.5C 61.5045,69.4727 61.3379,71.4727 61.5,73.5C 59.5,73.5 57.5,73.5 55.5,73.5C 55.3342,68.8215 55.5008,64.1548 56,59.5C 59.2975,62.5667 63.1308,64.7334 67.5,66C 83.3886,69.001 95.0553,63.501 102.5,49.5 Z"/></g>
<g><path style="opacity:0.965" fill="#090a0a" d="M 100.5,65.5 C 102.117,66.038 103.784,66.3713 105.5,66.5C 108.245,67.7372 110.578,69.5705 112.5,72C 110.97,74.352 109.303,76.5187 107.5,78.5C 105.167,76.8333 103.167,74.8333 101.5,72.5C 96.3949,69.88 91.3949,69.88 86.5,72.5C 85.5084,72.3284 84.8417,72.6618 84.5,73.5C 79.4449,77.6036 76.4449,82.9369 75.5,89.5C 79.5,89.5 83.5,89.5 87.5,89.5C 91.5,89.5 95.5,89.5 99.5,89.5C 99.9382,89.4346 100.272,89.6012 100.5,90C 99.8366,91.5185 98.8366,92.6851 97.5,93.5C 97.1667,93.5 96.8333,93.5 96.5,93.5C 94.1667,93.5 91.8333,93.5 89.5,93.5C 89.1667,93.5 88.8333,93.5 88.5,93.5C 86.1667,93.5 83.8333,93.5 81.5,93.5C 81.1667,93.5 80.8333,93.5 80.5,93.5C 78.5,93.5 76.5,93.5 74.5,93.5C 73.6734,99.1529 75.0067,104.153 78.5,108.5C 79.9448,110.063 81.6115,111.396 83.5,112.5C 85.941,113.756 88.2743,113.756 90.5,112.5C 90.8333,112.5 91.1667,112.5 91.5,112.5C 94.2406,112.293 96.5739,111.293 98.5,109.5C 100.434,108.89 102.101,107.89 103.5,106.5C 104.376,106.369 105.043,106.702 105.5,107.5C 103.122,109.552 100.789,111.552 98.5,113.5C 91.9816,118.245 84.6483,119.745 76.5,118C 74.5087,117.626 72.842,116.793 71.5,115.5C 68.6878,112.204 66.6878,108.537 65.5,104.5C 65.5,104.167 65.5,103.833 65.5,103.5C 65.3718,99.1186 65.7051,94.7853 66.5,90.5C 67.8007,87.8987 69.134,85.232 70.5,82.5C 71.3382,82.1583 71.6716,81.4916 71.5,80.5C 78.5072,70.4955 88.1739,65.4955 100.5,65.5 Z"/></g>
<g><path style="opacity:1" fill="#f1f6fd" d="M 101.5,72.5 C 101.5,74.5 101.5,76.5 101.5,78.5C 96.8338,79.6514 92.1671,79.6514 87.5,78.5C 86.6518,76.5914 86.3184,74.5914 86.5,72.5C 91.3949,69.88 96.3949,69.88 101.5,72.5 Z"/></g>
<g><path style="opacity:1" fill="#fbfbfb" d="M 55.5,74.5 C 61.1675,73.5024 63.5008,75.8357 62.5,81.5C 60.1667,81.5 57.8333,81.5 55.5,81.5C 55.5,79.1667 55.5,76.8333 55.5,74.5 Z"/></g>
<g><path style="opacity:1" fill="#dfe9f4" d="M 23.5,80.5 C 22.7814,78.2362 22.448,75.9029 22.5,73.5C 25.7281,73.7006 28.8948,73.3672 32,72.5C 38.0451,75.8606 37.8785,78.8606 31.5,81.5C 28.8599,80.9049 26.1933,80.5715 23.5,80.5 Z"/></g>
<g><path style="opacity:1" fill="#f4f7fb" d="M 84.5,73.5 C 86.0444,78.6058 87.0444,83.9391 87.5,89.5C 83.5,89.5 79.5,89.5 75.5,89.5C 76.4449,82.9369 79.4449,77.6036 84.5,73.5 Z"/></g>
<g><path style="opacity:1" fill="#fafbfc" d="M 70.5,82.5 C 69.134,85.232 67.8007,87.8987 66.5,90.5C 64.955,89.7703 64.1216,88.437 64,86.5C 63.51,87.7932 63.3433,89.1266 63.5,90.5C 61.4086,90.3184 59.4086,90.6518 57.5,91.5C 56.1667,88.8333 56.1667,86.1667 57.5,83.5C 59.0709,82.6906 60.7376,82.3573 62.5,82.5C 62.8333,86.5 63.1667,86.5 63.5,82.5C 65.8333,82.5 68.1667,82.5 70.5,82.5 Z"/></g>
<g><path style="opacity:1" fill="#bedcfb" d="M 84.5,73.5 C 84.8417,72.6618 85.5084,72.3284 86.5,72.5C 86.3184,74.5914 86.6518,76.5914 87.5,78.5C 92.1671,79.6514 96.8338,79.6514 101.5,78.5C 101.5,76.5 101.5,74.5 101.5,72.5C 103.167,74.8333 105.167,76.8333 107.5,78.5C 107.5,78.8333 107.5,79.1667 107.5,79.5C 106.167,79.5 104.833,79.5 103.5,79.5C 103.662,81.5273 103.495,83.5273 103,85.5C 102.506,83.8659 102.34,82.1992 102.5,80.5C 100.167,80.5 97.8333,80.5 95.5,80.5C 95.8333,83.1667 96.1667,85.8333 96.5,88.5C 97.791,88.2627 98.791,88.596 99.5,89.5C 95.5,89.5 91.5,89.5 87.5,89.5C 87.0444,83.9391 86.0444,78.6058 84.5,73.5 Z"/></g>
<g><path style="opacity:1" fill="#fefeff" d="M 87.5,80.5 C 89.8333,80.5 92.1667,80.5 94.5,80.5C 94.5751,83.2062 94.9084,85.8728 95.5,88.5C 93.1667,88.5 90.8333,88.5 88.5,88.5C 88.1667,85.8333 87.8333,83.1667 87.5,80.5 Z"/></g>
<g><path style="opacity:1" fill="#f7fafe" d="M 107.5,79.5 C 108.608,85.1473 109.608,90.8139 110.5,96.5C 108.833,96.5 107.167,96.5 105.5,96.5C 105.167,89.8333 104.833,89.8333 104.5,96.5C 102.409,96.3184 100.409,96.6518 98.5,97.5C 97.5713,96.3112 97.238,94.9778 97.5,93.5C 98.8366,92.6851 99.8366,91.5185 100.5,90C 100.272,89.6012 99.9382,89.4346 99.5,89.5C 98.791,88.596 97.791,88.2627 96.5,88.5C 96.1667,85.8333 95.8333,83.1667 95.5,80.5C 97.8333,80.5 100.167,80.5 102.5,80.5C 102.34,82.1992 102.506,83.8659 103,85.5C 103.495,83.5273 103.662,81.5273 103.5,79.5C 104.833,79.5 106.167,79.5 107.5,79.5 Z"/></g>
<g><path style="opacity:1" fill="#f6f9fc" d="M 46.5,71.5 C 46.175,79.0191 46.5084,86.3524 47.5,93.5C 47.5751,96.2062 47.9084,98.8728 48.5,101.5C 46.1667,101.5 43.8333,101.5 41.5,101.5C 41.5674,100.041 41.2341,98.7079 40.5,97.5C 42.4361,92.6109 41.4361,88.4442 37.5,85C 42.3397,79.9575 42.673,74.6242 38.5,69C 38.5699,68.2352 38.9033,67.7352 39.5,67.5C 41.4352,66.8505 43.4352,66.5172 45.5,66.5C 45.2155,68.4147 45.5489,70.0813 46.5,71.5 Z"/></g>
<g><path style="opacity:1" fill="#fbfcfd" d="M 98.5,109.5 C 96.5739,111.293 94.2406,112.293 91.5,112.5C 91.2267,110.549 91.8934,109.049 93.5,108C 92.3333,107.5 91.5,106.667 91,105.5C 90.5034,103.19 90.3367,100.857 90.5,98.5C 92.8333,98.5 95.1667,98.5 97.5,98.5C 97.2924,100.92 97.6258,103.253 98.5,105.5C 97.9747,106.192 97.3081,106.692 96.5,107C 97.756,107.417 98.4226,108.25 98.5,109.5 Z"/></g>
<g><path style="opacity:1" fill="#bddcfc" d="M 110.5,96.5 C 110.5,96.8333 110.5,97.1667 110.5,97.5C 109.167,97.5 107.833,97.5 106.5,97.5C 106.167,104.167 105.833,104.167 105.5,97.5C 103.194,97.9926 100.861,98.3259 98.5,98.5C 98.5751,101.206 98.9084,103.873 99.5,106.5C 100.833,106.5 102.167,106.5 103.5,106.5C 102.101,107.89 100.434,108.89 98.5,109.5C 98.4226,108.25 97.756,107.417 96.5,107C 97.3081,106.692 97.9747,106.192 98.5,105.5C 97.6258,103.253 97.2924,100.92 97.5,98.5C 95.1667,98.5 92.8333,98.5 90.5,98.5C 90.3367,100.857 90.5034,103.19 91,105.5C 91.5,106.667 92.3333,107.5 93.5,108C 91.8934,109.049 91.2267,110.549 91.5,112.5C 91.1667,112.5 90.8333,112.5 90.5,112.5C 90.5,111.167 90.5,109.833 90.5,108.5C 88.1667,108.5 85.8333,108.5 83.5,108.5C 83.5,109.833 83.5,111.167 83.5,112.5C 81.6115,111.396 79.9448,110.063 78.5,108.5C 79.5,108.5 80.5,108.5 81.5,108.5C 81.6641,105.813 81.4974,103.146 81,100.5C 79.9326,99.8095 78.7659,99.3095 77.5,99C 78.448,98.5172 79.448,98.3505 80.5,98.5C 80.5,96.8333 80.5,95.1667 80.5,93.5C 80.8333,93.5 81.1667,93.5 81.5,93.5C 81.5,95.1667 81.5,96.8333 81.5,98.5C 83.8333,98.5 86.1667,98.5 88.5,98.5C 88.5,96.8333 88.5,95.1667 88.5,93.5C 88.8333,93.5 89.1667,93.5 89.5,93.5C 89.5,94.8333 89.5,96.1667 89.5,97.5C 91.8333,97.5 94.1667,97.5 96.5,97.5C 96.5,96.1667 96.5,94.8333 96.5,93.5C 96.8333,93.5 97.1667,93.5 97.5,93.5C 97.238,94.9778 97.5713,96.3112 98.5,97.5C 100.409,96.6518 102.409,96.3184 104.5,96.5C 104.833,89.8333 105.167,89.8333 105.5,96.5C 107.167,96.5 108.833,96.5 110.5,96.5 Z"/></g>
<g><path style="opacity:1" fill="#fefffe" d="M 89.5,93.5 C 91.8333,93.5 94.1667,93.5 96.5,93.5C 96.5,94.8333 96.5,96.1667 96.5,97.5C 94.1667,97.5 91.8333,97.5 89.5,97.5C 89.5,96.1667 89.5,94.8333 89.5,93.5 Z"/></g>
<g><path style="opacity:1" fill="#fefefe" d="M 81.5,93.5 C 83.8333,93.5 86.1667,93.5 88.5,93.5C 88.5,95.1667 88.5,96.8333 88.5,98.5C 86.1667,98.5 83.8333,98.5 81.5,98.5C 81.5,96.8333 81.5,95.1667 81.5,93.5 Z"/></g>
<g><path style="opacity:1" fill="#f8f9fa" d="M 80.5,93.5 C 80.5,95.1667 80.5,96.8333 80.5,98.5C 79.448,98.3505 78.448,98.5172 77.5,99C 78.7659,99.3095 79.9326,99.8095 81,100.5C 81.4974,103.146 81.6641,105.813 81.5,108.5C 80.5,108.5 79.5,108.5 78.5,108.5C 75.0067,104.153 73.6734,99.1529 74.5,93.5C 76.5,93.5 78.5,93.5 80.5,93.5 Z"/></g>
<g><path style="opacity:1" fill="#fefeff" d="M 82.5,99.5 C 84.8333,99.5 87.1667,99.5 89.5,99.5C 89.2317,102.119 89.565,104.619 90.5,107C 83.5055,109.173 80.8389,106.673 82.5,99.5 Z"/></g>
<g><path style="opacity:1" fill="#fcfdff" d="M 65.5,103.5 C 65.5,103.833 65.5,104.167 65.5,104.5C 65.5,106.167 65.5,107.833 65.5,109.5C 63.1667,109.5 60.8333,109.5 58.5,109.5C 58.6495,108.448 58.4828,107.448 58,106.5C 57.6905,107.766 57.1905,108.933 56.5,110C 51.78,110.221 47.1133,110.721 42.5,111.5C 41.5159,108.572 41.1826,105.572 41.5,102.5C 43.8333,102.5 46.1667,102.5 48.5,102.5C 48.5267,110.394 49.1934,110.394 50.5,102.5C 52.4086,101.652 54.4086,101.318 56.5,101.5C 56.8333,105.5 57.1667,105.5 57.5,101.5C 64.1667,101.167 64.1667,100.833 57.5,100.5C 57.7076,98.0799 57.3742,95.7466 56.5,93.5C 58.7067,92.3652 61.0401,91.6985 63.5,91.5C 63.8509,95.6836 64.5176,99.6836 65.5,103.5 Z"/></g>
<g><path style="opacity:1" fill="#c1ddf9" d="M 71.5,80.5 C 71.6716,81.4916 71.3382,82.1583 70.5,82.5C 68.1667,82.5 65.8333,82.5 63.5,82.5C 63.1667,86.5 62.8333,86.5 62.5,82.5C 60.7376,82.3573 59.0709,82.6906 57.5,83.5C 56.1667,86.1667 56.1667,88.8333 57.5,91.5C 59.4086,90.6518 61.4086,90.3184 63.5,90.5C 63.3433,89.1266 63.51,87.7932 64,86.5C 64.1216,88.437 64.955,89.7703 66.5,90.5C 65.7051,94.7853 65.3718,99.1186 65.5,103.5C 64.5176,99.6836 63.8509,95.6836 63.5,91.5C 61.0401,91.6985 58.7067,92.3652 56.5,93.5C 57.3742,95.7466 57.7076,98.0799 57.5,100.5C 64.1667,100.833 64.1667,101.167 57.5,101.5C 57.1667,105.5 56.8333,105.5 56.5,101.5C 54.4086,101.318 52.4086,101.652 50.5,102.5C 49.1934,110.394 48.5267,110.394 48.5,102.5C 46.1667,102.5 43.8333,102.5 41.5,102.5C 41.1826,105.572 41.5159,108.572 42.5,111.5C 47.1133,110.721 51.78,110.221 56.5,110C 57.1905,108.933 57.6905,107.766 58,106.5C 58.4828,107.448 58.6495,108.448 58.5,109.5C 60.8333,109.5 63.1667,109.5 65.5,109.5C 65.5,107.833 65.5,106.167 65.5,104.5C 66.6878,108.537 68.6878,112.204 71.5,115.5C 69.8828,116.038 68.2161,116.371 66.5,116.5C 65.8505,114.565 65.5172,112.565 65.5,110.5C 63.1667,110.5 60.8333,110.5 58.5,110.5C 58.3364,116.167 58.0031,116.5 57.5,111.5C 55.1667,111.5 52.8333,111.5 50.5,111.5C 50.5,113.5 50.5,115.5 50.5,117.5C 50.1667,117.5 49.8333,117.5 49.5,117.5C 49.5,115.5 49.5,113.5 49.5,111.5C 47.1944,111.993 44.861,112.326 42.5,112.5C 42.5,114.5 42.5,116.5 42.5,118.5C 42.1667,118.5 41.8333,118.5 41.5,118.5C 40.8505,116.565 40.5172,114.565 40.5,112.5C 38.1667,112.5 35.8333,112.5 33.5,112.5C 33.5,114.5 33.5,116.5 33.5,118.5C 33.1667,118.5 32.8333,118.5 32.5,118.5C 32.8195,113.637 32.4861,108.97 31.5,104.5C 31.8417,103.662 32.5084,103.328 33.5,103.5C 36.4323,102.2 38.7656,100.2 40.5,97.5C 41.2341,98.7079 41.5674,100.041 41.5,101.5C 43.8333,101.5 46.1667,101.5 48.5,101.5C 47.9084,98.8728 47.5751,96.2062 47.5,93.5C 49.8333,93.5 52.1667,93.5 54.5,93.5C 52.7078,94.3091 50.7078,94.8091 48.5,95C 49.4061,96.6995 49.7394,98.5328 49.5,100.5C 51.8333,100.5 54.1667,100.5 56.5,100.5C 56.552,98.0971 56.2186,95.7638 55.5,93.5C 55.5,89.5 55.5,85.5 55.5,81.5C 57.8333,81.5 60.1667,81.5 62.5,81.5C 63.5008,75.8357 61.1675,73.5024 55.5,74.5C 55.5,74.1667 55.5,73.8333 55.5,73.5C 57.5,73.5 59.5,73.5 61.5,73.5C 61.3379,71.4727 61.5045,69.4727 62,67.5C 62.4935,69.1341 62.6602,70.8008 62.5,72.5C 64.8333,72.5 67.1667,72.5 69.5,72.5C 69.8333,65.8333 70.1667,65.8333 70.5,72.5C 71.8734,72.3433 73.2068,72.51 74.5,73C 72.8988,73.2734 71.3988,73.7734 70,74.5C 67.5341,73.2234 65.0341,73.2234 62.5,74.5C 63.3742,76.7466 63.7076,79.0799 63.5,81.5C 65.8333,81.5 68.1667,81.5 70.5,81.5C 70.6636,75.8333 70.9969,75.5 71.5,80.5 Z"/></g>
<g><path style="opacity:1" fill="#fefeff" d="M 33.5,103.5 C 35.5914,103.682 37.5914,103.348 39.5,102.5C 40.4841,105.428 40.8174,108.428 40.5,111.5C 38.1667,111.5 35.8333,111.5 33.5,111.5C 33.5,108.833 33.5,106.167 33.5,103.5 Z"/></g>
<g><path style="opacity:1" fill="#fefefe" d="M 54.5,93.5 C 54.8333,93.5 55.1667,93.5 55.5,93.5C 56.2186,95.7638 56.552,98.0971 56.5,100.5C 54.1667,100.5 51.8333,100.5 49.5,100.5C 49.7394,98.5328 49.4061,96.6995 48.5,95C 50.7078,94.8091 52.7078,94.3091 54.5,93.5 Z"/></g>
<g><path style="opacity:0.953" fill="#f5f8fc" d="M 31.5,104.5 C 32.4861,108.97 32.8195,113.637 32.5,118.5C 30.0521,119.473 27.3854,119.806 24.5,119.5C 24.4467,109.488 24.1134,99.4885 23.5,89.5C 27.4065,88.6425 31.2398,88.6425 35,89.5C 36.1871,91.0444 36.5205,92.7111 36,94.5C 33.2541,97.0992 30.4207,99.4326 27.5,101.5C 27.7189,103.915 29.0523,104.915 31.5,104.5 Z"/></g>
<g><path style="opacity:1" fill="#f8f8f8" d="M 90.5,112.5 C 88.2743,113.756 85.941,113.756 83.5,112.5C 83.5,111.167 83.5,109.833 83.5,108.5C 85.8333,108.5 88.1667,108.5 90.5,108.5C 90.5,109.833 90.5,111.167 90.5,112.5 Z"/></g>
<g><path style="opacity:0.817" fill="#eff4fa" d="M 110.5,97.5 C 111.341,102.386 112.341,107.22 113.5,112C 108.519,112.748 103.519,113.248 98.5,113.5C 100.789,111.552 103.122,109.552 105.5,107.5C 105.043,106.702 104.376,106.369 103.5,106.5C 102.167,106.5 100.833,106.5 99.5,106.5C 98.9084,103.873 98.5751,101.206 98.5,98.5C 100.861,98.3259 103.194,97.9926 105.5,97.5C 105.833,104.167 106.167,104.167 106.5,97.5C 107.833,97.5 109.167,97.5 110.5,97.5 Z"/></g>
<g><path style="opacity:0.918" fill="#fefffe" d="M 49.5,117.5 C 47.139,117.674 44.8056,118.007 42.5,118.5C 42.5,116.5 42.5,114.5 42.5,112.5C 44.861,112.326 47.1944,111.993 49.5,111.5C 49.5,113.5 49.5,115.5 49.5,117.5 Z"/></g>
<g><path style="opacity:0.88" fill="#fefeff" d="M 66.5,116.5 C 61.1554,116.687 55.8221,117.02 50.5,117.5C 50.5,115.5 50.5,113.5 50.5,111.5C 52.8333,111.5 55.1667,111.5 57.5,111.5C 58.0031,116.5 58.3364,116.167 58.5,110.5C 60.8333,110.5 63.1667,110.5 65.5,110.5C 65.5172,112.565 65.8505,114.565 66.5,116.5 Z"/></g>
<g><path style="opacity:0.935" fill="#fefeff" d="M 41.5,118.5 C 38.8333,118.5 36.1667,118.5 33.5,118.5C 33.5,116.5 33.5,114.5 33.5,112.5C 35.8333,112.5 38.1667,112.5 40.5,112.5C 40.5172,114.565 40.8505,116.565 41.5,118.5 Z"/></g>
</svg>
