<?xml version="1.0" encoding="UTF-8"?>
<svg xmlns="http://www.w3.org/2000/svg" xmlns:xlink="http://www.w3.org/1999/xlink" width="128px" height="130px" viewBox="0 0 128 129" version="1.1">
<g id="surface1">
<path style=" stroke:none;fill-rule:nonzero;fill:rgb(100%,40%,0%);fill-opacity:1;" d="M 33.183594 112.421875 C 33.183594 121.535156 25.742188 128.945312 16.59375 128.945312 C 7.441406 128.945312 0 121.535156 0 112.421875 C 0 103.308594 7.441406 95.894531 16.59375 95.894531 C 25.742188 95.894531 33.183594 103.308594 33.183594 112.421875 Z M 127.996094 128.949219 C 128.246094 90.941406 110.601562 53.28125 81.042969 29.246094 C 58.519531 10.515625 29.359375 -0.0976562 0 0 L 0 29.5 C 34.742188 29.097656 68.976562 47.925781 86.820312 77.671875 C 96.261719 93.105469 101.269531 110.824219 101.300781 128.898438 L 127.996094 128.898438 Z M 82.753906 128.949219 C 82.902344 104.511719 71.238281 80.476562 52.1875 65.152344 C 37.609375 53.234375 18.859375 46.523438 0.00390625 46.625 L 0.00390625 71.460938 C 20.515625 71.210938 40.625 82.929688 50.425781 100.90625 C 55.203125 109.507812 57.710938 119.171875 57.71875 129 L 82.753906 129 Z M 82.753906 128.949219 "/>
</g>
</svg>
